<svg xmlns="http://www.w3.org/2000/svg" width="64.351" height="65.697" viewBox="0 0 64.351 65.697">
  <path id="Instagram" d="M31.6,65.693A31.665,31.665,0,0,1,9.023,55.657,33.01,33.01,0,0,1,.005,32.262C.319,14.351,14.692,0,32.168,0q.29,0,.583.005c17.739.324,31.912,15.321,31.6,33.431a32.957,32.957,0,0,1-9.83,23.051A31.613,31.613,0,0,1,32.191,65.7C31.994,65.7,31.8,65.7,31.6,65.693ZM4.716,32.348a28.169,28.169,0,0,0,7.7,19.969,27.064,27.064,0,0,0,38.833.709,28.453,28.453,0,0,0,.693-39.646A27.025,27.025,0,0,0,32.667,4.814c-.166,0-.334,0-.5,0C17.25,4.81,4.983,17.059,4.716,32.348ZM31.925,47.179c-4.571-.084-5.112-.111-6.916-.228a9.282,9.282,0,0,1-3.169-.661,5.294,5.294,0,0,1-1.946-1.343,5.443,5.443,0,0,1-1.246-2.033,9.859,9.859,0,0,1-.532-3.256c-.05-1.845-.059-2.4.023-7.065s.109-5.22.224-7.061A9.841,9.841,0,0,1,19.01,22.3a5.426,5.426,0,0,1,1.317-1.986,5.282,5.282,0,0,1,1.991-1.272,9.309,9.309,0,0,1,3.19-.544c1.807-.051,2.348-.059,6.92.024s5.113.112,6.917.229a9.344,9.344,0,0,1,3.169.659,5.322,5.322,0,0,1,1.946,1.344A5.441,5.441,0,0,1,45.7,22.784a9.828,9.828,0,0,1,.533,3.256c.05,1.845.058,2.4-.023,7.065s-.109,5.219-.224,7.061a9.864,9.864,0,0,1-.646,3.235,5.725,5.725,0,0,1-3.308,3.258,9.276,9.276,0,0,1-3.19.544c-.848.024-1.417.039-2.257.039C35.641,47.242,34.35,47.223,31.925,47.179Zm-8.54-14.49a8.795,8.795,0,1,0,8.949-8.815h-.161A8.882,8.882,0,0,0,23.385,32.689Zm16.04-9.04a2.055,2.055,0,1,0,2.091-2.06h-.037A2.076,2.076,0,0,0,39.424,23.648Zm-7.35,15.027a5.707,5.707,0,1,1,.1,0Z" transform="translate(0)" fill="#f9f8ed"/>
</svg>
