<svg xmlns="http://www.w3.org/2000/svg" xmlns:xlink="http://www.w3.org/1999/xlink" width="60.102" height="60.102" viewBox="0 0 60.102 60.102">
  <defs>
    <linearGradient id="linear-gradient" x1="0.146" y1="0.146" x2="0.854" y2="0.854" gradientUnits="objectBoundingBox">
      <stop offset="0" stop-color="#ffe185"/>
      <stop offset="0.21" stop-color="#ffbb36"/>
      <stop offset="0.38" stop-color="#ff5176"/>
      <stop offset="0.52" stop-color="#f63395"/>
      <stop offset="0.74" stop-color="#a436d2"/>
      <stop offset="1" stop-color="#5f4eed"/>
    </linearGradient>
  </defs>
  <g id="Instagram" transform="translate(0.5 0.5)">
    <ellipse id="Ellipse_25" data-name="Ellipse 25" cx="29.551" cy="29.551" rx="29.551" ry="29.551" stroke="#afafaf" stroke-width="1" fill="url(#linear-gradient)"/>
    <path id="Path_3534" data-name="Path 3534" d="M1.8,0A1.8,1.8,0,1,0,3.6,1.8,1.8,1.8,0,0,0,1.8,0Z" transform="translate(35.9 19.655)" fill="#fff"/>
    <path id="Path_3535" data-name="Path 3535" d="M7.577,0a7.577,7.577,0,1,0,7.577,7.577A7.584,7.584,0,0,0,7.577,0Zm0,12.426a4.849,4.849,0,1,1,4.849-4.849A4.856,4.856,0,0,1,7.577,12.426Z" transform="translate(22.111 21.974)" fill="#fff"/>
    <path id="Path_3536" data-name="Path 3536" d="M21.515,30.754H9.239A9.246,9.246,0,0,1,0,21.516V9.239A9.246,9.246,0,0,1,9.239,0H21.515a9.246,9.246,0,0,1,9.239,9.239V21.516a9.246,9.246,0,0,1-9.239,9.239ZM9.239,2.889A6.361,6.361,0,0,0,2.889,9.239V21.515a6.361,6.361,0,0,0,6.349,6.349H21.515a6.361,6.361,0,0,0,6.349-6.349V9.239a6.361,6.361,0,0,0-6.349-6.349H9.239Z" transform="translate(14.174 14.174)" fill="#fff"/>
  </g>
</svg>
