<svg xmlns="http://www.w3.org/2000/svg" width="318.227" height="99" viewBox="0 0 318.227 99">
  <g id="LOGO" transform="translate(1490.227 37.984)">
    <g id="Group_807" data-name="Group 807">
      <text id="_1_3" data-name="1/3" transform="translate(-1423 -37.984)" fill="#fff" font-size="50" font-family="SegoeUIBlack, Segoe UI"><tspan x="0" y="54">MEGAGIF</tspan><tspan fill="#f9f8ed" font-size="22"><tspan x="0" y="76">stop-scrolling </tspan></tspan></text>
      <path id="Path_3797" data-name="Path 3797" d="M60.627,21.34V6.579A3.1,3.1,0,0,0,57.448,3.4H42.687a15.311,15.311,0,0,0-7.721,2.271A11.115,11.115,0,0,0,32.013,8.4a14.08,14.08,0,0,0-10.673-5H6.579A3.1,3.1,0,0,0,3.4,6.579V21.34a14.454,14.454,0,0,0,5,10.673,14.08,14.08,0,0,0-5,10.673V57.448a3.1,3.1,0,0,0,3.179,3.179H21.34a3.179,3.179,0,0,0,0-6.359H9.759V42.687a7.174,7.174,0,0,1,7.267-7.267H28.607V47A13.763,13.763,0,0,0,42.46,60.854H57.221A3.1,3.1,0,0,0,60.4,57.675V42.914a14.454,14.454,0,0,0-5-10.673A13.661,13.661,0,0,0,60.627,21.34ZM17.253,28.834a7.174,7.174,0,0,1-7.267-7.267V9.759H21.567a7.174,7.174,0,0,1,7.267,7.267V28.607H17.253ZM54.268,42.687V54.268H42.687A7.174,7.174,0,0,1,35.42,47V35.42H47A7.172,7.172,0,0,1,54.268,42.687ZM35.193,28.834V17.253a7.242,7.242,0,0,1,3.179-6.131A6.8,6.8,0,0,1,42.46,9.759H54.041V21.34a7.174,7.174,0,0,1-7.267,7.267H35.193Z" transform="translate(-1493.627 -17.892)" fill="#7260fe"/>
    </g>
  </g>
</svg>
