<svg xmlns="http://www.w3.org/2000/svg" width="70.221" height="70.266" viewBox="0 0 70.221 70.266">
  <g id="noun-mail-7142580" transform="translate(-8.351 -8.33)">
    <path id="Path_3786" data-name="Path 3786" d="M75.822,32.392l-6.851-5.408V22.6a5.424,5.424,0,0,0-5.418-5.418H56.561L46.821,9.5a5.4,5.4,0,0,0-6.712,0l-9.74,7.684H23.377A5.424,5.424,0,0,0,17.959,22.6v4.381l-6.848,5.4a7.285,7.285,0,0,0-2.76,5.685v33.5A7.034,7.034,0,0,0,15.376,78.6H57.357a1.757,1.757,0,0,0,0-3.514H15.376a3.518,3.518,0,0,1-3.514-3.514v-32.5l6.778,5.24a1.777,1.777,0,0,0,2.829-1.383V22.6a1.908,1.908,0,0,1,1.907-1.907H63.55A1.91,1.91,0,0,1,65.457,22.6V42.046L44.7,58.069a1.93,1.93,0,0,1-2.536-.053L26.361,45.81a1.758,1.758,0,0,0-2.151,2.78l8.843,6.828L17.877,68.088a1.757,1.757,0,0,0,2.25,2.7L35.9,57.618l4.058,3.132A5.382,5.382,0,0,0,46.9,60.8l4.124-3.185L66.8,70.786a1.757,1.757,0,0,0,2.25-2.7L53.873,55.421,75.061,39.065v32.5a3.52,3.52,0,0,1-3.514,3.514H64.38a1.757,1.757,0,0,0,0,3.514h7.167a7.034,7.034,0,0,0,7.025-7.025v-33.5a7.291,7.291,0,0,0-2.757-5.682ZM12.959,35.481c-.244.066,4.97-3.972,5.006-4.018v7.882c-.02-.01-4.983-3.863-5.006-3.863Zm29.33-23.22a1.9,1.9,0,0,1,2.358,0l6.245,4.924H36.044l6.245-4.927ZM68.974,39.338V31.459l4.674,3.692c.1.1.3.24.31.339l-4.983,3.847Z" transform="translate(0 0)"/>
    <path id="Path_3787" data-name="Path 3787" d="M63.417,32.893a1.757,1.757,0,0,0,0-3.514H53.843a1.757,1.757,0,0,0,0,3.514Z" transform="translate(-6.863 -3.301)"/>
    <path id="Path_3788" data-name="Path 3788" d="M34.158,32.893h9.574a1.757,1.757,0,0,0,0-3.514H34.158A1.757,1.757,0,0,0,34.158,32.893Z" transform="translate(-3.776 -3.301)"/>
    <path id="Path_3789" data-name="Path 3789" d="M34.155,42.155H60.333a1.757,1.757,0,0,0,0-3.514H34.155A1.757,1.757,0,0,0,34.155,42.155Z" transform="translate(-3.775 -4.754)"/>
    <path id="Path_3790" data-name="Path 3790" d="M39.377,47.906a1.757,1.757,0,0,0,0,3.514H56.748a1.757,1.757,0,0,0,0-3.514H39.377Z" transform="translate(-4.594 -6.207)"/>
  </g>
</svg>
