<svg xmlns="http://www.w3.org/2000/svg" width="64.824" height="64.832" viewBox="0 0 64.824 64.832">
  <g id="noun-telephone-7142605" transform="translate(-8.339 -8.325)">
    <path id="Path_3791" data-name="Path 3791" d="M12.019,23.509c-.471-2.1-.827-4.184.59-5.886a31.443,31.443,0,0,1,5.689-5.3,3.846,3.846,0,0,1,3.783-.425l2.753,1.173a1.9,1.9,0,0,1,1.118,1.355l2.656,11.21a1.959,1.959,0,0,1-.562,1.872l-4.014,3.82a3.43,3.43,0,0,0-.732,3.9c2.92,6.652,8.633,14.07,14.854,18.3a1.621,1.621,0,1,0,1.881-2.641,40.835,40.835,0,0,1-11.787-13.14c-.982-1.963-1.975-3.343-1.969-4.084l4-3.8a5.21,5.21,0,0,0,1.483-4.968L29.1,13.681a5.159,5.159,0,0,0-3.018-3.6L23.351,8.911c-5.373-2.419-10.134,3.212-13.258,6.664A8.069,8.069,0,0,0,8.425,21.78c.225,1.261.258,4.048,2.337,3.634A1.621,1.621,0,0,0,12.02,23.5Z"/>
    <path id="Path_3792" data-name="Path 3792" d="M73.166,63.917,72,61.194a5.165,5.165,0,0,0-3.6-3.03L57.191,55.509a5.2,5.2,0,0,0-4.965,1.48l-3.8,3.99c-.5.134-1.483-.662-2.434-1.054A1.62,1.62,0,0,0,44.507,62.8c2.237,1.209,4.276,2.379,6.26.422l3.811-4.005a1.962,1.962,0,0,1,1.869-.559l11.222,2.659c1.468.267,1.753,2.37,2.519,3.868a3.836,3.836,0,0,1-.416,3.768c-2.464,2.872-4.987,7.123-8.994,6.679A58.432,58.432,0,0,1,14.138,35.407a1.62,1.62,0,0,0-3.094.963A61.681,61.681,0,0,0,60.3,78.837c5.491.784,8.913-4.017,12.1-7.98a7.069,7.069,0,0,0,.775-6.944Z" transform="translate(-0.583 -5.766)"/>
    <path id="Path_3793" data-name="Path 3793" d="M48.587,20.777c12.289-.222,22.985,10.475,22.761,22.764a1.62,1.62,0,0,0,3.239-.006c.255-14.027-11.973-26.252-26-26a1.62,1.62,0,0,0,0,3.239Z" transform="translate(-8.583 -2.045)"/>
    <path id="Path_3794" data-name="Path 3794" d="M66.183,46.362a1.619,1.619,0,0,0,1.62-1.62A18.234,18.234,0,0,0,49.618,26.558a1.62,1.62,0,0,0,0,3.239A14.983,14.983,0,0,1,64.563,44.742a1.621,1.621,0,0,0,1.62,1.62Z" transform="translate(-8.812 -4.048)"/>
    <path id="Path_3795" data-name="Path 3795" d="M50.038,35.145a1.62,1.62,0,0,0-.012,3.239,7.989,7.989,0,0,1,7.947,7.947,1.62,1.62,0,1,0,3.239-.012A11.243,11.243,0,0,0,50.038,35.145Z" transform="translate(-8.904 -5.956)"/>
  </g>
</svg>
