<svg xmlns="http://www.w3.org/2000/svg" xmlns:xlink="http://www.w3.org/1999/xlink" width="60.102" height="60.102" viewBox="0 0 60.102 60.102">
  <defs>
    <linearGradient id="linear-gradient" x1="0.146" y1="0.146" x2="0.854" y2="0.854" gradientUnits="objectBoundingBox">
      <stop offset="0" stop-color="#fffa00"/>
      <stop offset="1" stop-color="#ffbb36"/>
    </linearGradient>
  </defs>
  <g id="snapchat" transform="translate(0.5 0.5)">
    <ellipse id="Ellipse_31" data-name="Ellipse 31" cx="29.551" cy="29.551" rx="29.551" ry="29.551" transform="translate(0 0)" stroke="#afafaf" stroke-width="1" fill="url(#linear-gradient)"/>
    <path id="Path_3542" data-name="Path 3542" d="M16.927,31.994a7.625,7.625,0,0,1-3.881-1.116c-.508-.3-.992-.62-1.488-.955L11,29.551a3.62,3.62,0,0,0-1.463-.533,3.578,3.578,0,0,0-.62-.05,12.071,12.071,0,0,0-1.488.136l-.781.1H6.4a1.529,1.529,0,0,1-1.687-1.426c-.037-.583-.149-.831-1.215-.955A6.553,6.553,0,0,1,1.773,26.3a3.039,3.039,0,0,1-1.7-1.513L0,24.628v-.992L.2,23.4a2.1,2.1,0,0,1,1.228-.781,7.68,7.68,0,0,0,5.184-4.03c.533-.88.57-1.141.558-1.215a3.808,3.808,0,0,0-1.253-.583c-.2-.062-.3-.1-.4-.136a5.015,5.015,0,0,1-1.488-.843,2,2,0,0,1-.707-2.021A2.3,2.3,0,0,1,5.1,12.14a2.14,2.14,0,0,1,.558-.062,3.937,3.937,0,0,1,1.327.285c.124.037.248.087.36.112a30.864,30.864,0,0,1-.062-4.067A8.061,8.061,0,0,1,11.409,1.6,10.633,10.633,0,0,1,16.9,0a10.539,10.539,0,0,1,5.432,1.563,8.047,8.047,0,0,1,4.117,6.163,23.8,23.8,0,0,1,0,4.7c.087-.025.186-.062.273-.087a4.677,4.677,0,0,1,1.376-.273,2.712,2.712,0,0,1,1.079.223,2.152,2.152,0,0,1,1.376,1.972,2.145,2.145,0,0,1-.781,1.538,5.512,5.512,0,0,1-1.55.856l-.608.236a5.835,5.835,0,0,0-.645.26,1.4,1.4,0,0,0-.335.211.838.838,0,0,0,.087.285c1.327,2.79,3.088,4.365,5.556,4.948a2.233,2.233,0,0,1,1.364.843l.161.223v.98l-.087.174a3.081,3.081,0,0,1-1.835,1.538,6.964,6.964,0,0,1-2.046.57c-.5.037-.62.136-.682.62-.112.769-.409,1.649-1.736,1.649a2.774,2.774,0,0,1-.434-.025,4.218,4.218,0,0,1-.657-.1,7.085,7.085,0,0,0-1.3-.124,4.325,4.325,0,0,0-2.815.955c-.26.211-.546.384-.818.57a8.219,8.219,0,0,1-4.526,1.5Z" transform="translate(12.624 13.542)" fill="#fff"/>
    <path id="Path_3543" data-name="Path 3543" d="M17.77,1.7A9.852,9.852,0,0,1,22.78,3.15a7.216,7.216,0,0,1,3.708,5.531,25.076,25.076,0,0,1-.012,4.824c-.037.521.025.732.36.732a2.154,2.154,0,0,0,.422-.062,7.643,7.643,0,0,1,1.736-.409,1.777,1.777,0,0,1,.732.161,1.365,1.365,0,0,1,.88,1.178,1.255,1.255,0,0,1-.484.918,4.908,4.908,0,0,1-1.451.756c-.384.161-.794.273-1.166.459-.781.36-1,.843-.645,1.625,1.265,2.666,3.125,4.7,6.126,5.407a1.42,1.42,0,0,1,.88.533v.508a2.35,2.35,0,0,1-1.376,1.128,6.16,6.16,0,0,1-1.811.508,1.377,1.377,0,0,0-1.463,1.339c-.112.732-.31.93-.905.93-.112,0-.223,0-.36-.012a5.322,5.322,0,0,1-.62-.087,8.016,8.016,0,0,0-1.414-.136,5.142,5.142,0,0,0-3.336,1.141c-.273.223-.583.409-.88.608a7.142,7.142,0,0,1-3.931,1.277,6.784,6.784,0,0,1-3.46-1c-.682-.4-1.339-.868-2.009-1.3a4.361,4.361,0,0,0-1.811-.657,5,5,0,0,0-.744-.05c-.781,0-1.55.161-2.319.236h-.2c-.446,0-.831-.174-.856-.645-.074-1.3-.868-1.625-1.959-1.736a5.747,5.747,0,0,1-1.488-.459A2.236,2.236,0,0,1,1.674,25.31V24.8a1.339,1.339,0,0,1,.756-.508,8.606,8.606,0,0,0,5.742-4.415c1.116-1.86.942-2.282-1.128-3.013-.124-.037-.236-.074-.36-.124a4.57,4.57,0,0,1-1.253-.694c-.93-.806-.372-1.959.707-2.22a1.865,1.865,0,0,1,.36-.037,18.314,18.314,0,0,1,1.9.459c.062,0,.124.012.186.012.384,0,.533-.2.471-.67a25.781,25.781,0,0,1-.087-4.266A7.223,7.223,0,0,1,12.686,3.2a9.913,9.913,0,0,1,5.072-1.476m.013-1.7a11.648,11.648,0,0,0-5.928,1.711A8.843,8.843,0,0,0,7.3,9.226c-.05,1.091-.062,2.059-.025,2.951a3.738,3.738,0,0,0-.769-.087,3.078,3.078,0,0,0-.756.087,3.149,3.149,0,0,0-2.393,2.269A2.863,2.863,0,0,0,4.328,17.3a5.7,5.7,0,0,0,1.724.98c.112.05.223.087.335.124.236.087.422.149.57.211-.062.112-.136.236-.223.384a6.891,6.891,0,0,1-4.626,3.633,2.952,2.952,0,0,0-1.7,1.054L0,24.157v1.488l.149.335a3.815,3.815,0,0,0,2.133,1.947,7.173,7.173,0,0,0,1.959.583c.236.025.384.062.459.074v.087A2.377,2.377,0,0,0,7.23,30.9a2,2,0,0,0,.384-.025c.26-.025.521-.062.769-.1a11.28,11.28,0,0,1,1.364-.136,2.285,2.285,0,0,1,.5.037,2.833,2.833,0,0,1,1.141.409l.583.384c.5.335.98.657,1.488.955a8.5,8.5,0,0,0,4.3,1.24,8.851,8.851,0,0,0,4.849-1.55l.161-.1a8.385,8.385,0,0,0,.868-.608,3.414,3.414,0,0,1,2.282-.769,6.074,6.074,0,0,1,1.116.112c.285.05.533.087.781.112.186.012.347.025.5.025a2.4,2.4,0,0,0,2.555-2.282,7.243,7.243,0,0,0,2.046-.546L33.085,28a3.9,3.9,0,0,0,2.282-1.959l.174-.347V24.244l-.335-.446a3.112,3.112,0,0,0-1.848-1.166A7.089,7.089,0,0,1,28.6,18.6a1.091,1.091,0,0,1,.186-.062c.174-.062.347-.124.508-.2l.112-.05a6.067,6.067,0,0,0,1.811-1,3,3,0,0,0,1.066-2.145,3,3,0,0,0-1.885-2.765,3.485,3.485,0,0,0-1.414-.3,3.6,3.6,0,0,0-.744.074A21.6,21.6,0,0,0,28.15,8.47a8.876,8.876,0,0,0-4.526-6.783A11.486,11.486,0,0,0,17.758,0h0Z" transform="translate(11.781 12.698)"/>
  </g>
</svg>
