<svg xmlns="http://www.w3.org/2000/svg" xmlns:xlink="http://www.w3.org/1999/xlink" width="60.102" height="60.102" viewBox="0 0 60.102 60.102">
  <defs>
    <linearGradient id="linear-gradient" x1="0.146" y1="0.146" x2="0.854" y2="0.854" gradientUnits="objectBoundingBox">
      <stop offset="0" stop-color="#23004a"/>
      <stop offset="0.96" stop-color="#010003"/>
      <stop offset="1"/>
    </linearGradient>
  </defs>
  <g id="tiktok" transform="translate(0.5 0.5)">
    <ellipse id="Ellipse_27" data-name="Ellipse 27" cx="29.551" cy="29.551" rx="29.551" ry="29.551" transform="translate(0 0)" stroke="#afafaf" stroke-width="1" fill="url(#linear-gradient)"/>
    <path id="Path_3537" data-name="Path 3537" d="M17.336,10.665A13.015,13.015,0,0,0,24.95,13.1V7.627a7.7,7.7,0,0,1-1.6-.161v4.3a13.1,13.1,0,0,1-7.614-2.431V20.486A10.109,10.109,0,0,1,0,28.869a10.1,10.1,0,0,0,17.324-7.056V10.665h0Zm1.972-5.506A7.6,7.6,0,0,1,17.336.707V0H15.823a7.691,7.691,0,0,0,3.485,5.159ZM3.547,24.591A4.619,4.619,0,0,1,7.23,17.175a4.921,4.921,0,0,1,1.4.211v-5.58a9.887,9.887,0,0,0-1.6-.087v4.353a4.52,4.52,0,0,0-1.4-.211A4.618,4.618,0,0,0,3.547,24.6Z" transform="translate(18.403 14.261)" fill="#ff1753" fill-rule="evenodd"/>
    <path id="Path_3538" data-name="Path 3538" d="M18.614,9.35a13.015,13.015,0,0,0,7.614,2.431v-4.3a7.606,7.606,0,0,1-4.043-2.319A7.61,7.61,0,0,1,18.7,0H14.72V21.826A4.628,4.628,0,0,1,6.411,24.6a4.618,4.618,0,0,1,2.083-8.743,4.793,4.793,0,0,1,1.4.211V11.719a10.095,10.095,0,0,0-7.019,17.15,10.109,10.109,0,0,0,15.737-8.383V9.338Z" transform="translate(15.526 14.249)" fill="#fff" fill-rule="evenodd"/>
    <path id="Path_3539" data-name="Path 3539" d="M27.828,8.817V7.651A7.649,7.649,0,0,1,23.785,6.5,7.677,7.677,0,0,0,27.828,8.817ZM20.3,1.339c-.037-.211-.062-.422-.087-.632V0H14.72V21.825a4.612,4.612,0,0,1-4.625,4.6,4.566,4.566,0,0,1-2.083-.5,4.628,4.628,0,0,0,8.309-2.778V1.327H20.3ZM11.5,13.058v-1.24a10.314,10.314,0,0,0-1.389-.1,10.1,10.1,0,0,0-5.63,18.49A10.095,10.095,0,0,1,11.5,13.058Z" transform="translate(13.926 12.922)" fill="#00c9d0" fill-rule="evenodd"/>
  </g>
</svg>
