<svg xmlns="http://www.w3.org/2000/svg" width="64.351" height="65.696" viewBox="0 0 64.351 65.696">
  <path id="Youtube" d="M31.6,65.691A31.662,31.662,0,0,1,9.021,55.656,33,33,0,0,1,.005,32.261C.323,14.151,15.038-.3,32.75,0c17.739.324,31.912,15.321,31.6,33.43C64.032,51.345,49.658,65.7,32.184,65.7,31.989,65.7,31.8,65.694,31.6,65.691ZM4.719,32.347a28.172,28.172,0,0,0,7.7,19.968,27.022,27.022,0,0,0,19.271,8.564c.166,0,.332,0,.5,0,14.915,0,27.181-12.248,27.449-27.535C59.9,17.892,47.806,5.093,32.666,4.817c-.165,0-.333,0-.5,0C17.252,4.812,4.986,17.06,4.719,32.347ZM32,46.472c-.358-.012-8.178-.272-10.7-.563l-.089-.014c-.086-.016-.193-.031-.318-.048a5.67,5.67,0,0,1-3.815-1.839,8,8,0,0,1-1.449-4.044c-.022-.314-.193-2.915-.148-5.5l.044-2.5c.045-2.6.308-5.181.337-5.467a8.494,8.494,0,0,1,1.589-4.009,5.434,5.434,0,0,1,3.738-1.777l.216-.022c4.355-.241,10.926-.167,10.991-.166s6.649.167,10.943.565l.184.025a5.613,5.613,0,0,1,3.742,1.865,8.068,8.068,0,0,1,1.457,4.1l0,.015c.02.3.191,2.892.146,5.484l-.044,2.5c-.045,2.589-.307,5.179-.337,5.466a8.453,8.453,0,0,1-1.59,4.01,5.309,5.309,0,0,1-3.71,1.735l-.253.024c-2.658.148-6.179.177-8.5.177C33,46.483,32.02,46.472,32,46.472Zm-3.056-18.3L28.785,37a.761.761,0,0,0,1.109.7l8.05-4.232a.784.784,0,0,0,.03-1.364l-7.9-4.6a.743.743,0,0,0-.376-.1A.769.769,0,0,0,28.94,28.173Z" transform="translate(0)" fill="#f9f8ed"/>
</svg>
